<?xml version="1.0" standalone="no"?>
<!DOCTYPE svg PUBLIC "-//W3C//DTD SVG 20010904//EN"
 "http://www.w3.org/TR/2001/REC-SVG-20010904/DTD/svg10.dtd">
<svg version="1.0" xmlns="http://www.w3.org/2000/svg"
 height="512" viewBox="0 0 2048.000000 2022.000000"
 preserveAspectRatio="xMidYMid meet">
<metadata>
Created by potrace 1.15, written by Peter Selinger 2001-2017
</metadata>
<g transform="translate(0.000000,2022.000000) scale(0.100000,-0.100000)"
fill="#FFFFFF" stroke="none">
<path d="M9735 20214 c-27 -2 -124 -8 -215 -14 -1770 -114 -3522 -710 -5010
-1705 -591 -395 -1035 -760 -1546 -1269 -402 -402 -648 -683 -954 -1091 -1078
-1436 -1746 -3106 -1949 -4875 -50 -430 -56 -557 -56 -1150 0 -593 6 -720 56
-1150 65 -568 189 -1175 349 -1709 426 -1422 1141 -2700 2148 -3836 169 -190
671 -688 867 -860 1060 -926 2266 -1614 3590 -2048 802 -263 1589 -417 2505
-489 225 -18 1215 -18 1440 0 916 72 1703 226 2505 489 1173 384 2256 970
3219 1739 312 250 516 433 832 748 402 402 648 683 954 1091 1078 1436 1746
3106 1949 4875 50 430 56 557 56 1150 0 593 -6 720 -56 1150 -65 568 -189
1175 -349 1709 -426 1422 -1141 2700 -2148 3836 -169 190 -671 688 -867 860
-1164 1017 -2520 1755 -3985 2169 -676 191 -1296 300 -2090 367 -119 10 -1139
21 -1245 13z m3427 -3711 c71 -32 141 -103 174 -176 l29 -62 0 -830 c0 -760
-1 -834 -17 -873 -40 -98 -116 -174 -207 -207 -31 -11 -164 -15 -628 -20 -424
-4 -619 -10 -698 -21 -458 -60 -711 -261 -810 -645 -41 -156 -44 -232 -44
-1121 l-1 -858 1117 -2 1118 -3 63 -34 c72 -39 111 -79 148 -154 37 -72 40
-141 15 -352 -37 -312 -60 -502 -91 -765 -17 -140 -32 -273 -35 -295 -8 -68
-35 -294 -50 -430 -9 -71 -18 -146 -22 -165 -19 -112 -117 -225 -226 -259 -60
-19 -99 -20 -1041 -20 -539 -1 -982 -4 -985 -7 -8 -7 -12 -1416 -11 -3646 l0
-1908 -1217 0 -1216 0 6 2780 7 2779 -762 3 -763 3 -60 28 c-63 29 -124 81
-155 132 -49 81 -48 55 -51 1085 l-3 965 28 62 c33 73 103 143 174 176 47 22
50 22 815 25 l767 2 0 963 c0 856 5 1113 25 1277 38 306 97 567 180 794 394
1082 1288 1713 2550 1799 28 2 451 3 940 3 l890 -1 47 -22z"/>
</g>
</svg>
