<?xml version="1.0" encoding="UTF-8"?>
<svg width="57px" height="40px" viewBox="0 0 57 40" version="1.1" xmlns="http://www.w3.org/2000/svg" xmlns:xlink="http://www.w3.org/1999/xlink">
    <!-- Generator: Sketch 64 (93537) - https://sketch.com -->
    <title>Group 4</title>
    <desc>Created with Sketch.</desc>
    <g id="Welcome" stroke="none" stroke-width="1" fill="none" fill-rule="evenodd">
        <g id="Desktop-Copy-5" transform="translate(-541.000000, -550.000000)" fill="#D8D8D8">
            <g id="Group-4" transform="translate(500.000000, 501.000000)">
                <path d="M74.64,49.44 L74.64,63.648 L75.1023673,63.4349388 C76.4777143,62.8148571 76.4777143,62.8148571 77.712,62.424 C79.152,61.968 79.152,61.968 80.64,61.968 C82.704,61.968 82.704,61.968 84.36,62.688 C86.016,63.408 86.016,63.408 87.12,64.68 C88.224,65.952 88.224,65.952 88.824,67.728 C89.424,69.504 89.424,69.504 89.424,71.616 C89.424,74.064 89.424,74.064 88.704,75.984 C87.984,77.904 87.984,77.904 86.664,79.2 C85.344,80.496 85.344,80.496 83.52,81.192 C81.696,81.888 81.696,81.888 79.536,81.888 C78.48,81.888 78.48,81.888 77.544,81.624 C76.608,81.36 76.608,81.36 75.816,81.072 C75.024,80.784 75.024,80.784 74.424,80.52 C73.824,80.256 73.824,80.256 73.488,80.256 C72.864,80.256 72.864,80.256 72.384,80.712 C71.904,81.168 71.904,81.168 71.376,82.128 L71.376,82.128 L71.058,82.128 L71.032,82.16 C70.592,82.68 70.592,82.68 69.9853333,83.1 L69.736,83.264 C68.968,83.744 68.968,83.744 67.816,83.744 C65.944,83.744 65.944,83.744 65.128,82.592 C64.312,81.44 64.312,81.44 64.312,79.616 L64.312,79.616 L64.312,78.368 L64.18912,78.77024 C63.928,79.5728 63.928,79.5728 63.544,80.36 C63.064,81.344 63.064,81.344 62.32,82.088 C61.576,82.832 61.576,82.832 60.544,83.288 C59.512,83.744 59.512,83.744 58.12,83.744 C56.152,83.744 56.152,83.744 54.712,83.048 C53.272,82.352 53.272,82.352 52.336,81.152 C51.4,79.952 51.4,79.952 50.944,78.32 C50.488,76.688 50.488,76.688 50.488,74.816 C50.488,72.272 50.488,72.272 51.304,70.328 C52.12,68.384 52.12,68.384 53.44,67.04 C54.76,65.696 54.76,65.696 56.512,65.024 C58.264,64.352 58.264,64.352 60.136,64.352 C61.288,64.352 61.288,64.352 62.2,64.544 C63.112,64.736 63.112,64.736 63.784,64.976 C64.552,65.216 64.552,65.216 65.176,65.552 L65.176,65.552 L68.104,63.968 L68.536,64.112 L68.5386667,66.6 C68.544,69.08 68.544,69.08 68.56,71.528 C68.584,75.2 68.584,75.2 68.584,78.944 C68.584,80.864 68.584,80.864 70.216,80.768 L70.08,80.771 L70.08,55.056 L70.0726667,54.836 C70.036,54.296 70.036,54.296 69.816,53.856 C69.552,53.328 69.552,53.328 68.904,52.896 C68.256,52.464 68.256,52.464 66.912,51.984 L66.912,51.984 L67.056,50.928 L74.64,49.44 Z M60.04,66.176 C59.224,66.176 59.224,66.176 58.312,66.56 C57.4,66.944 57.4,66.944 56.632,67.808 C55.864,68.672 55.864,68.672 55.384,70.112 C54.904,71.552 54.904,71.552 54.904,73.616 C54.904,75.152 54.904,75.152 55.216,76.52 C55.528,77.888 55.528,77.888 56.128,78.896 C56.728,79.904 56.728,79.904 57.616,80.504 C58.504,81.104 58.504,81.104 59.656,81.104 C60.712,81.104 60.712,81.104 61.576,80.48 C62.44,79.856 62.44,79.856 63.04,78.824 C63.64,77.792 63.64,77.792 63.976,76.4 C64.312,75.008 64.312,75.008 64.312,73.424 L64.312,73.424 L64.312,72.896 L64.30528,72.38144 C64.2784,71.36 64.2784,71.36 64.144,70.4 C63.976,69.2 63.976,69.2 63.496,68.264 C63.016,67.328 63.016,67.328 62.2,66.752 C61.384,66.176 61.384,66.176 60.04,66.176 Z M78.288,64.128 C76.752,64.128 76.752,64.128 75.696,64.752 C74.64,65.376 74.64,65.376 74.64,66.048 L74.64,66.048 L74.64,75.6 L74.6438788,75.8521212 C74.768,79.824 74.768,79.824 78.864,79.824 C81.6,79.824 81.6,79.824 83.04,77.76 C84.48,75.696 84.48,75.696 84.48,72.528 C84.48,70.8 84.48,70.8 84.072,69.288 C83.664,67.776 83.664,67.776 82.896,66.624 C82.128,65.472 82.128,65.472 80.952,64.8 C79.776,64.128 79.776,64.128 78.288,64.128 Z" id="Combined-Shape"></path>
                <path d="M62,58 L48.9166667,58 L48.9166667,85 L91.6666667,85 L91.6666667,58 L78,58 L78,53 L98,53 L98,89 L41,89 L41,53 L62,53 L62,58 Z" id="Combined-Shape"></path>
            </g>
        </g>
    </g>
</svg>
