<?xml version="1.0" encoding="UTF-8"?>
<svg viewBox="0 0 1103 1104" fill="#FFFFFF" height="512" version="1.1" xmlns="http://www.w3.org/2000/svg" xmlns:xlink="http://www.w3.org/1999/xlink">
    <title>Fill 4</title>
    <desc>Created with Sketch.</desc>
    <g id="Page-1" stroke="none" stroke-width="1" fill="#FFFFFF" fill-rule="evenodd">
        <g id="shutterstock_1691620174" fill="#FFFFFF" transform="translate(-1928.000000, -1904.000000)">
            <polygon id="Fill-1" fill="#155D85" points="0 3599.94 3599.96 3599.94 3599.96 0 0 0"></polygon>
            <path d="M2479.361,1904.715 C2783.752,1904.715 3030.51,2151.473 3030.51,2455.865 C3030.51,2760.256 2783.752,3007.014 2479.361,3007.014 C2174.969,3007.014 1928.211,2760.256 1928.211,2455.865 C1928.211,2151.473 2174.969,1904.715 2479.361,1904.715 Z M2580.11,2634.144 L2599.505,2616.512 C2618.332,2599.396 2642.909,2594.197 2667.049,2602.244 L2777.524,2639.068 C2805.723,2648.469 2829.573,2668.687 2834.658,2699.219 C2836.641,2711.123 2835.429,2723.302 2831.621,2734.726 C2831.052,2736.434 2830.426,2738.123 2829.746,2739.791 L2828.075,2743.898 L2580.11,2634.144 Z M2293.431,2363.545 L2271.542,2387.64 C2268.757,2390.706 2268.259,2395.218 2270.297,2398.821 C2301.652,2454.247 2339.728,2505.394 2384.783,2550.449 C2429.685,2595.35 2480.635,2633.328 2535.848,2664.615 L2535.938,2664.667 L2536.025,2664.721 C2539.655,2667.013 2544.424,2666.585 2547.599,2663.699 L2571.687,2641.801 L2823.128,2753.095 L2820.17,2757.372 C2808.245,2774.614 2790.475,2788.575 2771.636,2797.569 C2737.473,2813.879 2698.433,2814.765 2661.708,2808.437 C2579.165,2794.215 2494.512,2743.3 2428.699,2692.934 C2393.716,2666.161 2360.609,2636.915 2329.463,2605.769 C2298.318,2574.624 2269.072,2541.517 2242.299,2506.534 C2202.883,2455.031 2166.954,2397.479 2144.257,2336.516 C2137.945,2319.56 2132.627,2302.157 2128.876,2284.449 C2124.08,2261.807 2121.792,2238.343 2123.919,2215.238 C2126.546,2186.691 2135.941,2160.109 2153.972,2137.615 C2160.842,2129.047 2168.817,2121.318 2177.86,2115.063 L2182.138,2112.104 L2293.431,2363.545 Z M2195.441,2105.486 C2197.109,2104.807 2198.799,2104.181 2200.507,2103.611 C2212.248,2099.698 2224.951,2098.533 2237.152,2100.778 C2248.436,2102.854 2258.844,2107.704 2267.789,2114.875 C2281.484,2125.852 2290.663,2141.204 2296.164,2157.708 L2332.989,2268.183 C2341.035,2292.323 2335.837,2316.902 2318.721,2335.728 L2301.089,2355.123 L2191.334,2107.159 L2195.441,2105.486 L2195.441,2105.486 Z" id="Fill-4" fill="#FFFFFF"></path>
        </g>
    </g>
</svg>
